<?xml version="1.0" encoding="UTF-8" standalone="no"?>
<svg xmlns="http://www.w3.org/2000/svg" width="400" height="100" viewBox="0 0 400 100">
  <path fill="white" d="M34.6,16.9c-4.1,0.9-7.8,2.3-11.1,4.3c-3.3,2-6.2,4.5-8.7,7.3c-2.5,2.9-4.4,6-5.8,9.4c-1.4,3.4-2.1,6.9-2.1,10.6
    c0,3.3,0.6,6.4,1.8,9.4c1.2,3,2.9,5.7,5.1,8c2.2,2.3,4.8,4.2,7.9,5.7c3.1,1.4,6.5,2.1,10.2,2.1c1.8,0,3.8-0.3,5.9-0.8v-14.2L21.7,71h15.9
    v13.3L12.7,84.3v15.1l44.1-0.2v-40L34.6,16.9z"/>
  <path fill="white" d="M91.3,20.1L68.6,33.4l10.3,10.8l-38.6,12.9l23.1,23.1l18.2-19L91.3,71h21.1L91.3,20.1z"/>
  <path fill="white" d="M162.5,21.6h-22.2l-12.7,22l-17.6-22h-22.2l34.9,40l-22.5,22.5h22.2l11.8-11.8c0,0,7.3,14.1,27.3,11.2v-19.1
    c0,0-8.3,3.1-12.2-4.1C144.8,55.2,162.5,21.6,162.5,21.6z"/>
  <path fill="white" d="M168.6,21.6v22.2c0,0,16.8-3.3,16.8,6.4c0,9.7-16.8,5.4-16.8,5.4v28.7h16.8c0,0,22.2-1.5,22.2-23.3
    S196.7,21.6,168.6,21.6z"/>
  <path fill="white" d="M256.3,21.6c-22.2,0-35,11.9-35,25.1s12.8,25.1,35,25.1v-17.6c-6.9,0-12.5-3.4-12.5-7.5s5.6-7.5,12.5-7.5h7.5
    c7.9,0,14.4,6.4,14.4,14.4v31.9h22.2V54.3C300.4,36.2,286.6,21.6,256.3,21.6z"/>
  <path fill="white" d="M382.2,21.8l-24.9,23.1l-10.4-13l-32.1,13v39.7h23.5l-0.3-24.5l9.1,11.3l10.4-9.4v22.6h23.5L382.2,21.8z"/>
</svg>